<svg width="630" height="182" viewBox="0 0 630 182" fill="none" xmlns="http://www.w3.org/2000/svg">
<path d="M106.13 128.34V67.25C106.13 39.16 91.85 23.01 56.41 23.01C21.87 23.01 6.45 41.5 5.53 62.57H33.38C34.3 51.1 41.44 45.72 56.17 45.72C69.29 45.72 75.97 51.34 75.97 60C75.97 69.13 66.99 70.77 47.42 73.58C21.18 77.32 0 85.74 0 112.19C0 136.06 17.03 148.94 41.2 148.94C61.46 148.94 69.97 141.92 75.96 132.79H76.42C77.11 138.17 78.26 143.79 80.1 146.13H110.26V144.96C107.5 142.85 106.13 137.47 106.13 128.34ZM76.65 103.76C76.65 115.47 66.75 126.7 48.8 126.7C37.75 126.7 30.38 122.72 30.38 111.48C30.38 100.24 38.44 96.5 54.78 92.75C62.61 90.88 71.13 89 76.65 85.73V103.76Z" fill="#151515"/>
<path d="M179.85 22.78C163.74 22.78 152.69 30.51 145.09 41.04H144.41V26.07H114.25V182H145.56V132.56H146.02C152.69 142.86 163.52 149.65 180.09 149.65C210.48 149.65 231.2 125.07 231.2 86.22C231.18 48.76 211.16 22.78 179.85 22.78ZM173.4 123.19C154.76 123.19 144.85 108.91 144.85 87.14C144.85 65.61 152.68 48.52 172.25 48.52C191.58 48.52 199.41 64.44 199.41 87.14C199.42 109.85 189.29 123.19 173.4 123.19Z" fill="#151515"/>
<path d="M268.27 41.03H267.58V26.06H237.42V182H268.73V132.56H269.19C275.87 142.86 286.69 149.65 303.26 149.65C304.68 149.65 306.07 149.59 307.44 149.49V120.71C304.23 122.35 300.59 123.2 296.58 123.2C277.94 123.2 268.03 108.92 268.03 87.15C268.03 65.62 275.86 48.53 295.43 48.53C300.08 48.53 304.06 49.45 307.43 51.17V22.96C305.99 22.84 304.52 22.78 303.02 22.78C286.91 22.78 275.86 30.5 268.27 41.03Z" fill="#151515"/>
<path d="M503.1 127.37V66.28C503.1 38.2 488.83 22.04 453.37 22.04C446.74 22.04 440.81 22.72 435.56 23.97V49.7001C439.3 46.3601 445.09 44.75 453.15 44.75C466.27 44.75 472.95 50.37 472.95 59.03C472.95 68.16 463.97 69.8 444.4 72.61C441.38 73.04 438.42 73.54 435.56 74.12V97.08C439.51 94.96 444.91 93.38 451.76 91.81C459.59 89.94 468.1 88.06 473.63 84.78V102.81C473.63 114.51 463.73 125.74 445.78 125.74C441.86 125.74 438.39 125.24 435.56 124.08V147.93C436.42 147.96 437.3 147.98 438.19 147.98C458.44 147.98 466.96 140.96 472.95 131.83H473.41C474.1 137.21 475.25 142.83 477.09 145.17H507.25V144C504.48 141.89 503.1 136.5 503.1 127.37Z" fill="#151515"/>
<path d="M620.8 122.72C613.89 122.72 609.06 119.68 609.06 110.79V52.17H629.31V26.06H609.06V0H578.44V25.59C576.59 24.89 574.53 24.65 571.07 24.65C557.26 24.65 549.2 31.68 542.06 45.25H541.37V26.06H511.21V146.13H542.52V87.62C542.52 62.34 557.25 51.34 577.74 53.45H578.43V117.58C578.43 140.29 595.24 146.37 610.42 146.37C622.86 146.37 629.99 145.91 629.99 145.91V122.5C630 122.49 624.71 122.72 620.8 122.72Z" fill="#151515"/>
</svg>
